<?xml version="1.0" encoding="UTF-8" standalone="no"?>
<!-- Created with Inkscape (http://www.inkscape.org/) -->

<svg
   xmlns:dc="http://purl.org/dc/elements/1.1/"
   xmlns:cc="http://creativecommons.org/ns#"
   xmlns:rdf="http://www.w3.org/1999/02/22-rdf-syntax-ns#"
   xmlns:svg="http://www.w3.org/2000/svg"
   xmlns="http://www.w3.org/2000/svg"
   xmlns:sodipodi="http://sodipodi.sourceforge.net/DTD/sodipodi-0.dtd"
   xmlns:inkscape="http://www.inkscape.org/namespaces/inkscape"
   id="svg2"
   version="1.1"
   inkscape:version="0.48.4 r9939"
   width="297.35019"
   height="299.70523"
   xml:space="preserve"
   sodipodi:docname="netfree_logo1.svg"
   inkscape:export-filename="/home/magicode/Downloads/netfree_logo1.png"
   inkscape:export-xdpi="180"
   inkscape:export-ydpi="180"><metadata
     id="metadata8"><rdf:RDF><cc:Work
         rdf:about=""><dc:format>image/svg+xml</dc:format><dc:type
           rdf:resource="http://purl.org/dc/dcmitype/StillImage" /><dc:title></dc:title></cc:Work></rdf:RDF></metadata><defs
     id="defs6" /><sodipodi:namedview
     pagecolor="#ffffff"
     bordercolor="#666666"
     borderopacity="1"
     objecttolerance="10"
     gridtolerance="10"
     guidetolerance="10"
     inkscape:pageopacity="0"
     inkscape:pageshadow="2"
     inkscape:window-width="1920"
     inkscape:window-height="1012"
     id="namedview4"
     showgrid="false"
     fit-margin-top="5"
     fit-margin-left="5"
     fit-margin-right="5"
     fit-margin-bottom="5"
     inkscape:zoom="1.026087"
     inkscape:cx="117.63831"
     inkscape:cy="39.424401"
     inkscape:window-x="-2"
     inkscape:window-y="-3"
     inkscape:window-maximized="1"
     inkscape:current-layer="g12" /><g
     id="g10"
     inkscape:groupmode="layer"
     inkscape:label="ink_ext_XXXXXX"
     transform="matrix(1.25,0,0,-1.25,-113.84964,493.71382)"><g
       id="g12"
       transform="scale(0.1,0.1)"><path
         d="m 1126.7731,3463.1415 c -22.1001,-264.1353 -32.6554,-836.2761 275.8831,-1310.4382 161.9953,230.3508 352.9415,403.8402 553.5549,528.6257 -96.7354,506.8302 -527.5347,704.8555 -829.438,781.8125"
         style="fill:#918f8f;fill-opacity:1;fill-rule:evenodd;stroke:none"
         id="path18"
         inkscape:connector-curvature="0" /><path
         d="m 3020.9858,2866.1349 c -69.1294,-453.6986 -294.4563,-996.7998 -945.6474,-1273.9642 l 0,-0.051 -0.1903,-0.051 0,0.203 c -294.4182,125.2803 -501.7175,305.0242 -646.9665,506.1704 185.732,271.0749 412.0104,462.4651 646.9665,587.9991 l 0,0.051 c 13.1814,7.0284 26.3628,13.8665 39.5442,20.4635 315.0339,157.7834 642.4119,199.8649 906.2935,159.1789"
         style="fill:#7b7979;fill-opacity:1;fill-rule:evenodd;stroke:none"
         id="path20"
         inkscape:connector-curvature="0" /><path
         d="m 3034.5731,3611.1689 c -1.294,-17.9389 36.7151,-234.2583 20.0703,-524.9086 -91.534,46.2427 -189.2589,81.6257 -287.2376,103.9795 -215.8627,49.1987 -434.1613,35.5733 -592.9469,-62.748 -28.5449,49.2621 -58.2316,94.2108 -88.857,135.5438 l 0,0.051 c -209.7224,283.4189 -461.2218,387.0812 -685.7241,410.3358 413.7992,109.5108 683.986,235.3874 685.7241,236.1867 l 0,0.1015 c 0,0 388.6289,-181.482 948.9712,-298.5414"
         style="fill:#a7a5a6;fill-opacity:1;fill-rule:evenodd;stroke:none"
         id="path22"
         inkscape:connector-curvature="0" /><path
         d="m 2758.8296,3128.6336 c 177.8156,-40.5337 354.4386,-125.8766 490.7689,-242.0859 -224.8956,69.4338 -703.2696,149.8162 -1238.7842,-168.4909 -138.1572,641.0672 -783.1446,801.8319 -1060.01721,841.4776 243.67171,78.898 821.69921,176.42 1191.55201,-492.4055 l 16.5941,-30.0292 27.809,19.9307 c 145.4901,104.3093 359.1326,120.1676 572.0774,71.6032"
         style="fill:#648e86;fill-opacity:1;fill-rule:evenodd;stroke:none"
         id="path24"
         inkscape:connector-curvature="0" /></g></g></svg>