<?xml version="1.0" encoding="UTF-8" standalone="no"?>
<!-- Created with Inkscape (http://www.inkscape.org/) -->

<svg
   xmlns:osb="http://www.openswatchbook.org/uri/2009/osb"
   xmlns:dc="http://purl.org/dc/elements/1.1/"
   xmlns:cc="http://creativecommons.org/ns#"
   xmlns:rdf="http://www.w3.org/1999/02/22-rdf-syntax-ns#"
   xmlns:svg="http://www.w3.org/2000/svg"
   xmlns="http://www.w3.org/2000/svg"
   xmlns:sodipodi="http://sodipodi.sourceforge.net/DTD/sodipodi-0.dtd"
   xmlns:inkscape="http://www.inkscape.org/namespaces/inkscape"
   id="svg3336"
   version="1.1"
   inkscape:version="0.91 r13725"
   width="2083"
   height="499"
   viewBox="0 0 2083 499"
   sodipodi:docname="netfree_logo_small_light.svg">
  <metadata
     id="metadata3342">
    <rdf:RDF>
      <cc:Work
         rdf:about="">
        <dc:format>image/svg+xml</dc:format>
        <dc:type
           rdf:resource="http://purl.org/dc/dcmitype/StillImage" />
        <dc:title></dc:title>
      </cc:Work>
    </rdf:RDF>
  </metadata>
  <defs
     id="defs3340">
    <linearGradient
       id="linearGradient4240"
       osb:paint="solid">
      <stop
         style="stop-color:#7b7979;stop-opacity:1;"
         offset="0"
         id="stop4242" />
    </linearGradient>
    <linearGradient
       id="linearGradient4234"
       osb:paint="solid">
      <stop
         style="stop-color:#7b7979;stop-opacity:1;"
         offset="0"
         id="stop4236" />
    </linearGradient>
    <linearGradient
       id="linearGradient4228"
       osb:paint="solid">
      <stop
         style="stop-color:#7b7979;stop-opacity:1;"
         offset="0"
         id="stop4230" />
    </linearGradient>
    <linearGradient
       id="linearGradient4222"
       osb:paint="solid">
      <stop
         style="stop-color:#648e86;stop-opacity:1;"
         offset="0"
         id="stop4224" />
    </linearGradient>
    <linearGradient
       id="linearGradient4216"
       osb:paint="solid">
      <stop
         style="stop-color:#648e86;stop-opacity:1;"
         offset="0"
         id="stop4218" />
    </linearGradient>
    <linearGradient
       id="linearGradient4210"
       osb:paint="solid">
      <stop
         style="stop-color:#648e86;stop-opacity:1;"
         offset="0"
         id="stop4212" />
    </linearGradient>
    <linearGradient
       id="linearGradient4204"
       osb:paint="solid">
      <stop
         style="stop-color:#648e86;stop-opacity:1;"
         offset="0"
         id="stop4206" />
    </linearGradient>
  </defs>
  <sodipodi:namedview
     pagecolor="#ffffff"
     bordercolor="#666666"
     borderopacity="1"
     objecttolerance="10"
     gridtolerance="10"
     guidetolerance="10"
     inkscape:pageopacity="0"
     inkscape:pageshadow="2"
     inkscape:window-width="1920"
     inkscape:window-height="1018"
     id="namedview3338"
     showgrid="false"
     inkscape:snap-global="false"
     inkscape:zoom="0.52"
     inkscape:cx="824.31697"
     inkscape:cy="249.5"
     inkscape:window-x="-8"
     inkscape:window-y="-8"
     inkscape:window-maximized="1"
     inkscape:current-layer="g10" />
  <g
     transform="matrix(1.25,0,0,-1.25,896.01757,326.07726)"
     inkscape:label="ink_ext_XXXXXX"
     id="g10">
    <g
       transform="matrix(0.56775956,0,0,0.584007,-1327.7547,-260.8479)"
       id="g12"
       style="fill:#ffffff;fill-opacity:1">
      <path
         inkscape:connector-curvature="0"
         id="path14"
         style="fill:#ffffff;fill-opacity:1;fill-rule:nonzero;stroke:none"
         d="m 1092.6289,296.10224 67.5063,0 0,406.30291 264.3133,-406.30291 66.7946,0 0,531.54442 -66.7946,0 0,-407.35006 -263.5832,407.35006 -68.2364,0 0,-531.54442" />
      <path
         inkscape:connector-curvature="0"
         id="path16"
         style="fill:#ffffff;fill-opacity:1;fill-rule:nonzero;stroke:none"
         d="m 1584.9238,389.75332 c 0,-86.50303 57.4782,-98.34435 105.3168,-95.70936 0,0 212.1771,10.79509 223.4066,12.34782 l 0,52.78224 -216.9093,0 c -21.0079,0 -44.4095,-0.75787 -44.9826,37.87247 l 0,128.52625 231.7432,6.53435 0,53.72129 -231.7432,8.01497 0,127.91348 c 0,19.60399 0,40.65163 37.7644,40.65163 l 224.1275,0 0,53.505 c -12.8193,1.80505 -230.6619,11.62507 -230.6619,11.62507 -49.1787,1.91318 -98.0615,-21.77041 -98.0615,-98.6697 l 0,-339.11551" />
      <path
         inkscape:connector-curvature="0"
         id="path18"
         style="fill:#ffffff;fill-opacity:1;fill-rule:nonzero;stroke:none"
         d="m 1973.0664,763.02217 152.1386,0 0,-466.91993 66.7947,0 0,466.91993 156.5101,0 0,64.62449 -375.4434,0 0,-64.62449" />
      <path
         inkscape:connector-curvature="0"
         id="path20"
         style="fill:#ffffff;fill-opacity:1;fill-rule:nonzero;stroke:none"
         d="m 2436.7376,296.10224 29.7881,0 0,247.59386 253.4074,5.12675 0,21.04856 -253.4074,5.05466 0,158.34767 c 0,42.81806 18.8452,64.58754 61.702,64.58754 l 220.7357,0 0,21.08462 -220.7357,8.70076 c -47.2285,1.44459 -91.4901,-23.21407 -91.4901,-94.37292 l 0,-437.1715" />
      <path
         inkscape:connector-curvature="0"
         id="path22"
         style="fill:#ffffff;fill-opacity:1;fill-rule:nonzero;stroke:none"
         d="m 2837.5608,296.10224 29.7418,0 0,236.7276 c 2.209,-1.44458 140.1884,-7.2571 165.6048,-7.97894 l 116.1859,-228.74866 31.1929,0 -114.707,229.4705 c 41.3781,2.16641 107.4795,14.51328 107.4795,151.74123 0,127.11862 -65.3435,150.33269 -126.3617,150.33269 l -209.1362,0 0,-531.54442 z m 29.7418,259.9777 0,241.05951 179.3944,0 c 47.1917,0 95.8619,-13.79147 95.8619,-119.82548 0,-110.36683 -46.5075,-121.23403 -95.8619,-121.23403 l -179.3944,0" />
      <path
         inkscape:connector-curvature="0"
         id="path24"
         style="fill:#ffffff;fill-opacity:1;fill-rule:nonzero;stroke:none"
         d="m 3276.1388,385.4205 c 0,-82.06207 50.8331,-93.65108 98.7732,-91.48468 l 213.5174,8.70077 0,21.04858 -213.5174,0 c -33.3926,0 -68.9574,4.40399 -68.9574,61.73533 l 0,158.2756 253.4074,5.12675 0,21.04856 -253.4074,5.05466 0,158.34767 c 0,42.81806 18.8455,64.58754 61.7022,64.58754 l 220.7726,0 0,21.08462 -220.7726,8.70076 c -47.1823,1.44459 -91.518,-23.21407 -91.518,-94.37292 l 0,-347.85324" />
      <path
         inkscape:connector-curvature="0"
         id="path26"
         style="fill:#ffffff;fill-opacity:1;fill-rule:nonzero;stroke:none"
         d="m 3694.43,385.4205 c 0,-82.06207 50.7962,-93.65108 98.7364,-91.48468 l 213.5172,8.70077 0,21.04858 -213.5172,0 c -33.3927,0 -68.9574,4.40399 -68.9574,61.73533 l 0,158.2756 253.4072,5.12675 0,21.04856 -253.4072,5.05466 0,158.34767 c 0,42.81806 18.8453,64.58754 61.739,64.58754 l 220.7356,0 0,21.08462 -220.7356,8.70076 c -47.2284,1.44459 -91.518,-23.21407 -91.518,-94.37292 l 0,-347.85324" />
    </g>
  </g>
</svg>
