<?xml version="1.0" encoding="utf-8"?>
<!-- Generator: Adobe Illustrator 23.0.6, SVG Export Plug-In . SVG Version: 6.00 Build 0)  -->
<svg version="1.1"
	 id="svg2" xmlns:cc="http://creativecommons.org/ns#" xmlns:dc="http://purl.org/dc/elements/1.1/" xmlns:inkscape="http://www.inkscape.org/namespaces/inkscape" xmlns:rdf="http://www.w3.org/1999/02/22-rdf-syntax-ns#" xmlns:sodipodi="http://sodipodi.sourceforge.net/DTD/sodipodi-0.dtd" xmlns:svg="http://www.w3.org/2000/svg"
	 xmlns="http://www.w3.org/2000/svg" xmlns:xlink="http://www.w3.org/1999/xlink" x="0px" y="0px" viewBox="0 0 510 490"
	 style="enable-background:new 0 0 510 490;" xml:space="preserve">
<style type="text/css">
	.st0{fill:#7B7979;}
	.st1{fill:#648E86;}
</style>
<sodipodi:namedview  bordercolor="#666666" borderopacity="1" fit-margin-bottom="5" fit-margin-left="5" fit-margin-right="5" fit-margin-top="5" gridtolerance="10" guidetolerance="10" id="namedview4" inkscape:current-layer="g12" inkscape:cx="220.1842" inkscape:cy="229.72988" inkscape:pageopacity="0" inkscape:pageshadow="2" inkscape:window-height="1012" inkscape:window-maximized="1" inkscape:window-width="1920" inkscape:window-x="-2" inkscape:window-y="-3" inkscape:zoom="1.026087" objecttolerance="10" pagecolor="#ffffff" showgrid="false">
	</sodipodi:namedview>
<g id="g12" transform="scale(0.1,0.1)">
	<path id="path28" inkscape:connector-curvature="0" class="st0" d="M50,4347.8h115.8v-697.1l453.5,697.1H734v-912H619.3v699
		l-452.3-699H50L50,4347.8"/>
	<path id="path30" inkscape:connector-curvature="0" class="st0" d="M894.7,4187.1c0,148.5,98.7,168.8,180.7,164.3
		c0,0,364.1-18.5,383.3-21.2v-90.6h-372.1c-36.1,0-76.2,1.2-77.2-65v-220.5l397.6-11.2v-92.2l-397.6-13.7v-219.5
		c0-33.6,0-69.7,64.8-69.7h384.6v-91.8c-22-3.1-395.8-19.9-395.8-19.9c-84.3-3.3-168.3,37.4-168.3,169.2V4187.1"/>
	<path id="path32" inkscape:connector-curvature="0" class="st0" d="M1560.7,3546.7h261v801.1h114.7v-801.1h268.5v-110.9h-644.1
		V3546.7"/>
	<path id="path34" inkscape:connector-curvature="0" class="st1" d="M2356.3,4347.8h51.1V3923l434.8-8.7v-36.1l-434.8-8.7v-271.6
		c0-73.5,32.3-110.8,105.9-110.8H2892v-36.2l-378.7-14.9c-81-2.5-157,39.8-157,161.9V4347.8"/>
	<path id="path36" inkscape:connector-curvature="0" class="st1" d="M3044,4347.8h51v-406.2c3.8,2.5,240.5,12.4,284.1,13.7
		l199.4,392.5h53.6l-196.9-393.7c71.1-3.8,184.4-24.9,184.4-260.4c0-218.1-112.1-258-216.8-258H3044L3044,4347.8L3044,4347.8z
		 M3095.1,3901.8v-413.7h307.7c81,0,164.5,23.7,164.5,205.7c0,189.4-79.7,208-164.5,208H3095.1"/>
	<path id="path38" inkscape:connector-curvature="0" class="st1" d="M3796.6,4194.6c0,140.8,87.2,160.7,169.4,157l366.4-14.9v-36.1
		H3966c-57.3,0-118.3-7.6-118.3-105.9V3923l434.8-8.7v-36.1l-434.8-8.7v-271.6c0-73.5,32.3-110.8,105.9-110.8h378.7v-36.2
		l-378.7-14.9c-81-2.5-157,39.8-157,161.9V4194.6"/>
	<path id="path40" inkscape:connector-curvature="0" class="st1" d="M4514.2,4194.6c0,140.8,87.2,160.7,169.5,157l366.3-14.9v-36.1
		h-366.3c-57.4,0-118.4-7.6-118.4-105.9V3923l434.9-8.7v-36.1l-434.9-8.7v-271.6c0-73.5,32.4-110.8,105.9-110.8H5050v-36.2
		l-378.7-14.9c-81-2.5-157,39.8-157,161.9L4514.2,4194.6"/>
	<path id="path42" inkscape:connector-curvature="0" class="st0" d="M738.9,4721.4c0-20.4-4.1-34.9-12.4-43.5
		c-8.2-8.7-22.6-12.9-43.2-12.9h-52v177.6h-30.8v-206.2h83.3c30.9,0,53,6.6,66.3,19.9c13.3,13.2,20.1,35.1,20.1,65.5v120.9h-31.2
		L738.9,4721.4"/>
	<path id="path44" inkscape:connector-curvature="0" class="st0" d="M902.1,4842.5h30.8v-206.2h-30.8
		C902.1,4636.3,902.1,4842.5,902.1,4842.5z"/>
	<path id="path46" inkscape:connector-curvature="0" class="st0" d="M1148,4846c-28.5,0-49.6-7.2-63-21.7
		c-13.4-14.4-20.2-36.5-20.2-66.4v-121.6h31v120.5c0,20.8,4,36.1,12.3,45.7c8.2,9.7,21.7,14.4,40.5,14.4c22,0,37.9-6.8,47.8-20.3
		c9.8-13.6,14.7-36.1,14.7-67.4c0-23.4-2.5-40.5-7.4-51.2c-4.9-10.8-13.3-16.2-25.2-16.2c-11.5,0-22.4,3.6-33.2,10.9v-29.6
		c8.9-6.8,20.9-10.2,36.2-10.2c15.4,0,27.5,3.3,36.3,9.9c8.7,6.6,15.3,17,19.5,31.2c4.2,14.2,6.2,32.6,6.2,55.3
		c0,40.2-7.7,69.8-23,88.5C1205.2,4836.5,1181,4846,1148,4846"/>
	<path id="path48" inkscape:connector-curvature="0" class="st0" d="M1358.7,4664.9v-28.6h63.4c30.9,0,53.1,6.6,66.4,19.9
		c13.3,13.2,19.9,35.1,19.9,65.5v92.2h22.4v28.6h-180v-28.6h126.7v-92.5c0-20.6-4.1-35.2-12.4-43.7c-8.3-8.5-22.8-12.8-43.2-12.8
		H1358.7"/>
	<path id="path50" inkscape:connector-curvature="0" class="st0" d="M1950.3,4636.3h32l-5.2,55.1c-1.7,18.7-4,32.2-6.8,40.5
		c-2.9,8.4-7.1,14.8-12.7,19.3c-5.6,4.6-14.9,8.5-27.9,12.1l-25.2,5.8l8.2,43.4h4c22.6,0,40.5-1.3,54.1-3.9
		c13.6-2.7,24.2-6.8,32.1-12.4c7.9-5.6,13.9-13.5,18.3-23.7c4.3-10.3,7.7-26.3,10.2-48l10.7-88.2h32.4l-10.7,87.1
		c-3.5,29.4-8.4,51.1-14.8,65.3c-6.4,14.2-15.4,25.1-27.1,32.9c-11.6,7.9-27.7,13.4-48.1,17c-20.4,3.5-49.7,5.4-87.8,5.6
		l-39.4-207.9h32.1l20.6,106.1l12.3-2.4c12.1-2.6,20.6-7.4,25.5-14.1c4.8-6.8,7.7-18.3,9-34.7L1950.3,4636.3"/>
	<path id="path52" inkscape:connector-curvature="0" class="st0" d="M2193.7,4842.5h30.9v-206.2h-30.9
		C2193.7,4636.3,2193.7,4842.5,2193.7,4842.5z"/>
	<path id="path54" inkscape:connector-curvature="0" class="st0" d="M2361.4,4815.4c21.4-8,39.8-18,55.1-30.2
		c15.4-12.2,27.1-25.5,35-39.8c8.1-14.4,12.1-28.9,12.1-43.7c0-24.5-13.1-36.7-39.3-36.7h-83.6v-102.3h30.9v73.7h55.8
		c45,0,67.5,20.1,67.5,60c0,32.7-12.1,62.9-36.2,90.5c-24.1,27.6-56.6,48.6-97.3,63.2L2361.4,4815.4"/>
	<path id="path56" inkscape:connector-curvature="0" class="st0" d="M2630.1,4636.3c10.8,0,19.2,0.9,25.1,2.6
		c5.9,1.7,10.8,4.6,14.6,8.4c3.8,3.8,7.3,9.7,10.5,17.6c3.2,7.9,7.7,24.3,13.6,49.6l29.2,128h-30.5l-19.2-84.7
		c-9.3,2.4-16.3,5.1-20.6,8.5c-4.3,3.4-7.9,8.3-10.7,15c-2.7,6.6-5.4,16.9-7.8,30.8l-5.6,30.3H2597l5.8-30.6
		c2.7-14.8,5.3-25.9,7.9-33.4c2.6-7.5,5.9-13.8,9.9-19c4-5.1,9.1-9.4,15.2-12.8c6-3.5,16.9-7.4,32.4-11.6
		c-5.6-23.7-9.8-39.7-12.8-48c-2.9-8.3-6.1-14.1-9.5-17.3c-3.5-3.2-8.4-4.8-14.9-4.8h-22.7v-28.6H2630.1"/>
	<path id="path58" inkscape:connector-curvature="0" class="st0" d="M2832.5,4815.4c21.4-8,39.8-18,55.1-30.2
		c15.4-12.2,27.1-25.5,35.1-39.8c8.1-14.4,12-28.9,12-43.7c0-24.5-13.1-36.7-39.3-36.7h-83.5v-102.3h30.8v73.7h55.8
		c45,0,67.5,20.1,67.5,60c0,32.7-12,62.9-36.1,90.5c-24.1,27.6-56.6,48.6-97.4,63.2V4815.4"/>
	<path id="path60" inkscape:connector-curvature="0" class="st0" d="M3382.9,4636.3h32l-5.2,55.1c-1.7,18.7-4,32.2-6.8,40.5
		c-2.9,8.4-7.1,14.8-12.7,19.3c-5.6,4.6-14.9,8.5-27.9,12.1l-25.2,5.8l8.2,43.4h4c22.6,0,40.6-1.3,54.2-3.9
		c13.6-2.7,24.2-6.8,32.1-12.4c7.9-5.6,13.9-13.5,18.3-23.7c4.2-10.3,7.8-26.3,10.3-48l10.6-88.2h32.4l-10.7,87.1
		c-3.5,29.4-8.5,51.1-14.9,65.3c-6.4,14.2-15.4,25.1-27.1,32.9c-11.6,7.9-27.7,13.4-48.1,17c-20.4,3.5-49.7,5.4-87.8,5.6
		l-39.4-207.9h32.1l20.6,106.1l12.3-2.4c12.1-2.6,20.6-7.4,25.5-14.1c4.8-6.8,7.7-18.3,9-34.7L3382.9,4636.3"/>
	<path id="path62" inkscape:connector-curvature="0" class="st0" d="M3756.7,4727.9c0-21.2-4.6-36.9-13.9-47.4
		c-9.3-10.3-23.9-15.5-43.9-15.5h-46.4v58.2h40.9v28.6h-72.3v-115.3h78.2c30,0,52.3,7.5,66.9,22.4c14.7,15.1,22,38.2,22,69.9v13.8
		c0,66.8-31.6,100.2-94.8,100.2h-70.4v-28.6h71.3c21.2,0,37-5.9,47.2-17.7c10.2-11.8,15.4-29.7,15.4-53.5L3756.7,4727.9"/>
	<path id="path64" inkscape:connector-curvature="0" class="st0" d="M3911.3,4842.5h30.9v-206.2h-30.9
		C3911.3,4636.3,3911.3,4842.5,3911.3,4842.5z"/>
	<path id="path66" inkscape:connector-curvature="0" class="st0" d="M4214.3,4721.4c0-20.4-4.1-34.9-12.4-43.5
		c-8.2-8.7-22.6-12.9-43.2-12.9h-52v177.6h-30.9v-206.2h83.3c30.9,0,53,6.6,66.4,19.9c13.3,13.2,20,35.1,20,65.5v120.9h-31.1V4721.4
		"/>
	<path id="path68" inkscape:connector-curvature="0" class="st0" d="M4408,4842.5h-31v-133.9h31
		C4408,4708.6,4408,4842.5,4408,4842.5z M4538.9,4842.5h-31.1v-121.2c0-20.6-4.2-35.2-12.5-43.7c-8.4-8.5-22.8-12.8-43.3-12.8h-78.4
		v-28.6h78.9c30.8,0,53,6.6,66.3,19.9c13.3,13.2,20,35.1,20,65.5L4538.9,4842.5"/>
</g>
</svg>
